<svg width="40" height="41" viewBox="0 0 40 41" fill="none" xmlns="http://www.w3.org/2000/svg">
<g clip-path="url(#clip0_10_161)">
<path d="M20 41C31.0457 41 40 31.8218 40 20.5C40 9.17816 31.0457 0 20 0C8.9543 0 0 9.17816 0 20.5C0 31.8218 8.9543 41 20 41Z" fill="#7B7B7B"/>
<path d="M28.6635 11.67C27.5293 10.5066 26.1826 9.58363 24.7002 8.95393C23.2179 8.32423 21.629 8.00012 20.0244 8.00012C18.4199 8.00012 16.831 8.32423 15.3487 8.95393C13.8663 9.58363 12.5196 10.5066 11.3854 11.67C10.2504 12.8325 9.34993 14.2129 8.7356 15.7323C8.12126 17.2517 7.80505 18.8803 7.80505 20.525C7.80505 22.1697 8.12126 23.7983 8.7356 25.3177C9.34993 26.8371 10.2504 28.2175 11.3854 29.38C13.2308 31.272 15.6188 32.5087 18.1995 32.9087C20.7803 33.3087 23.4182 32.8512 25.7269 31.603C25.8315 31.5463 25.9242 31.4691 25.9997 31.3757C26.0752 31.2823 26.132 31.1746 26.1669 31.0587C26.2017 30.9428 26.214 30.8211 26.203 30.7003C26.1919 30.5796 26.1578 30.4622 26.1025 30.355C26.0472 30.2478 25.9719 30.1528 25.8808 30.0754C25.7896 29.998 25.6846 29.9398 25.5715 29.904C25.4584 29.8683 25.3396 29.8557 25.2218 29.867C25.104 29.8783 24.9895 29.9133 24.8849 29.97C22.8717 31.0595 20.5658 31.4431 18.3198 31.0622C16.0738 30.6813 14.0113 29.5568 12.4478 27.8607C10.8843 26.1646 9.90577 23.9903 9.66194 21.6702C9.4181 19.3502 9.92235 17.0121 11.0976 15.0136C12.2728 13.0151 14.0543 11.4662 16.1696 10.6037C18.285 9.7412 20.6177 9.61262 22.8111 10.2376C25.0044 10.8626 26.9377 12.2068 28.3153 14.0646C29.6928 15.9224 30.4388 18.1915 30.4391 20.525C30.5234 21.84 30.1725 23.1458 29.443 24.231C29.2396 24.5276 28.9728 24.7726 28.6628 24.9471C28.3528 25.1217 28.008 25.2212 27.6547 25.238C26.7483 25.238 25.8323 24.499 25.8323 22.846V15.653C25.8323 15.4079 25.7373 15.1729 25.5682 14.9996C25.3992 14.8263 25.1699 14.729 24.9308 14.729C24.6917 14.729 24.4624 14.8263 24.2934 14.9996C24.1243 15.1729 24.0293 15.4079 24.0293 15.653V16.059C23.3119 15.3194 22.4275 14.7727 21.4545 14.4675C20.4815 14.1622 19.45 14.1079 18.4516 14.3092C17.4532 14.5105 16.5188 14.9613 15.7311 15.6216C14.9434 16.2819 14.327 17.1313 13.9363 18.0943C13.5457 19.0574 13.3931 20.1044 13.4919 21.1425C13.5907 22.1805 13.938 23.1775 14.5029 24.045C15.0677 24.9125 15.8328 25.6237 16.7301 26.1154C17.6275 26.6072 18.6293 26.8643 19.6469 26.864C20.2475 26.8661 20.845 26.7761 21.4196 26.597C21.6487 26.527 21.8413 26.3665 21.955 26.151C22.0687 25.9354 22.0942 25.6823 22.0259 25.4475C21.9576 25.2126 21.8011 25.0152 21.5908 24.8987C21.3804 24.7821 21.1336 24.756 20.9044 24.826C20.4962 24.9502 20.0727 25.0139 19.6469 25.015C18.7801 25.015 17.9327 24.7515 17.212 24.2579C16.4913 23.7643 15.9296 23.0626 15.5979 22.2418C15.2663 21.4209 15.1795 20.5177 15.3487 19.6463C15.5179 18.7749 15.9354 17.9745 16.5484 17.3463C17.1614 16.7181 17.9423 16.2904 18.7925 16.1172C19.6427 15.944 20.5239 16.0331 21.3246 16.3732C22.1254 16.7134 22.8098 17.2893 23.2912 18.0281C23.7727 18.7669 24.0295 19.6355 24.0293 20.524V22.845C24.0293 25.627 25.8518 27.085 27.6547 27.085C28.2822 27.0682 28.8977 26.9044 29.4541 26.6063C30.0104 26.3082 30.4928 25.8836 30.8644 25.365C31.8329 23.9517 32.317 22.2493 32.241 20.524C32.2459 18.879 31.9321 17.2493 31.318 15.7295C30.7039 14.2096 29.8016 12.8298 28.6635 11.67Z" fill="white"/>
</g>
<defs>
<clipPath id="clip0_10_161">
<rect width="40" height="41" fill="white"/>
</clipPath>
</defs>
</svg>
