<svg width="271" height="41" viewBox="0 0 271 41" fill="none" xmlns="http://www.w3.org/2000/svg">
<path d="M56.55 23.075C55.87 23.075 55.255 22.92 54.705 22.61C54.155 22.29 53.715 21.835 53.385 21.245C53.065 20.645 52.905 19.915 52.905 19.055C52.905 18.195 53.065 17.47 53.385 16.88C53.705 16.28 54.14 15.825 54.69 15.515C55.24 15.205 55.86 15.05 56.55 15.05C57.3 15.05 57.97 15.22 58.56 15.56C59.16 15.89 59.63 16.36 59.97 16.97C60.31 17.57 60.48 18.265 60.48 19.055C60.48 19.855 60.31 20.555 59.97 21.155C59.63 21.755 59.16 22.225 58.56 22.565C57.97 22.905 57.3 23.075 56.55 23.075ZM52.485 25.91V15.125H53.505V17.495L53.4 19.07L53.55 20.66V25.91H52.485ZM56.475 22.13C57.035 22.13 57.535 22.005 57.975 21.755C58.415 21.495 58.765 21.135 59.025 20.675C59.285 20.205 59.415 19.665 59.415 19.055C59.415 18.445 59.285 17.91 59.025 17.45C58.765 16.99 58.415 16.63 57.975 16.37C57.535 16.11 57.035 15.98 56.475 15.98C55.915 15.98 55.41 16.11 54.96 16.37C54.52 16.63 54.17 16.99 53.91 17.45C53.66 17.91 53.535 18.445 53.535 19.055C53.535 19.665 53.66 20.205 53.91 20.675C54.17 21.135 54.52 21.495 54.96 21.755C55.41 22.005 55.915 22.13 56.475 22.13ZM67.5421 23V21.26L67.4971 20.975V18.065C67.4971 17.395 67.3071 16.88 66.9271 16.52C66.5571 16.16 66.0021 15.98 65.2621 15.98C64.7521 15.98 64.2671 16.065 63.8071 16.235C63.3471 16.405 62.9571 16.63 62.6371 16.91L62.1571 16.115C62.5571 15.775 63.0371 15.515 63.5971 15.335C64.1571 15.145 64.7471 15.05 65.3671 15.05C66.3871 15.05 67.1721 15.305 67.7221 15.815C68.2821 16.315 68.5621 17.08 68.5621 18.11V23H67.5421ZM64.8271 23.075C64.2371 23.075 63.7221 22.98 63.2821 22.79C62.8521 22.59 62.5221 22.32 62.2921 21.98C62.0621 21.63 61.9471 21.23 61.9471 20.78C61.9471 20.37 62.0421 20 62.2321 19.67C62.4321 19.33 62.7521 19.06 63.1921 18.86C63.6421 18.65 64.2421 18.545 64.9921 18.545H67.7071V19.34H65.0221C64.2621 19.34 63.7321 19.475 63.4321 19.745C63.1421 20.015 62.9971 20.35 62.9971 20.75C62.9971 21.2 63.1721 21.56 63.5221 21.83C63.8721 22.1 64.3621 22.235 64.9921 22.235C65.5921 22.235 66.1071 22.1 66.5371 21.83C66.9771 21.55 67.2971 21.15 67.4971 20.63L67.7371 21.365C67.5371 21.885 67.1871 22.3 66.6871 22.61C66.1971 22.92 65.5771 23.075 64.8271 23.075ZM74.7247 23.075C73.9447 23.075 73.2447 22.905 72.6247 22.565C72.0147 22.215 71.5347 21.74 71.1847 21.14C70.8347 20.53 70.6597 19.835 70.6597 19.055C70.6597 18.265 70.8347 17.57 71.1847 16.97C71.5347 16.37 72.0147 15.9 72.6247 15.56C73.2447 15.22 73.9447 15.05 74.7247 15.05C75.3947 15.05 75.9997 15.18 76.5397 15.44C77.0797 15.7 77.5047 16.09 77.8147 16.61L77.0197 17.15C76.7497 16.75 76.4147 16.455 76.0147 16.265C75.6147 16.075 75.1797 15.98 74.7097 15.98C74.1497 15.98 73.6447 16.11 73.1947 16.37C72.7447 16.62 72.3897 16.975 72.1297 17.435C71.8697 17.895 71.7397 18.435 71.7397 19.055C71.7397 19.675 71.8697 20.215 72.1297 20.675C72.3897 21.135 72.7447 21.495 73.1947 21.755C73.6447 22.005 74.1497 22.13 74.7097 22.13C75.1797 22.13 75.6147 22.035 76.0147 21.845C76.4147 21.655 76.7497 21.365 77.0197 20.975L77.8147 21.515C77.5047 22.025 77.0797 22.415 76.5397 22.685C75.9997 22.945 75.3947 23.075 74.7247 23.075ZM80.6297 20.96L80.6597 19.595L85.5647 15.125H86.8697L83.4047 18.44L82.8047 18.95L80.6297 20.96ZM79.7897 23V11.87H80.8547V23H79.7897ZM85.8947 23L82.6097 18.905L83.2997 18.08L87.1997 23H85.8947ZM93.587 23V21.26L93.542 20.975V18.065C93.542 17.395 93.352 16.88 92.972 16.52C92.602 16.16 92.047 15.98 91.307 15.98C90.797 15.98 90.312 16.065 89.852 16.235C89.392 16.405 89.002 16.63 88.682 16.91L88.202 16.115C88.602 15.775 89.082 15.515 89.642 15.335C90.202 15.145 90.792 15.05 91.412 15.05C92.432 15.05 93.217 15.305 93.767 15.815C94.327 16.315 94.607 17.08 94.607 18.11V23H93.587ZM90.872 23.075C90.282 23.075 89.767 22.98 89.327 22.79C88.897 22.59 88.567 22.32 88.337 21.98C88.107 21.63 87.992 21.23 87.992 20.78C87.992 20.37 88.087 20 88.277 19.67C88.477 19.33 88.797 19.06 89.237 18.86C89.687 18.65 90.287 18.545 91.037 18.545H93.752V19.34H91.067C90.307 19.34 89.777 19.475 89.477 19.745C89.187 20.015 89.042 20.35 89.042 20.75C89.042 21.2 89.217 21.56 89.567 21.83C89.917 22.1 90.407 22.235 91.037 22.235C91.637 22.235 92.152 22.1 92.582 21.83C93.022 21.55 93.342 21.15 93.542 20.63L93.782 21.365C93.582 21.885 93.232 22.3 92.732 22.61C92.242 22.92 91.622 23.075 90.872 23.075ZM100.86 25.985C100.14 25.985 99.4496 25.88 98.7896 25.67C98.1296 25.46 97.5946 25.16 97.1846 24.77L97.7246 23.96C98.0946 24.29 98.5496 24.55 99.0896 24.74C99.6396 24.94 100.22 25.04 100.83 25.04C101.83 25.04 102.565 24.805 103.035 24.335C103.505 23.875 103.74 23.155 103.74 22.175V20.21L103.89 18.86L103.785 17.51V15.125H104.805V22.04C104.805 23.4 104.47 24.395 103.8 25.025C103.14 25.665 102.16 25.985 100.86 25.985ZM100.665 22.7C99.9146 22.7 99.2396 22.54 98.6396 22.22C98.0396 21.89 97.5646 21.435 97.2146 20.855C96.8746 20.275 96.7046 19.61 96.7046 18.86C96.7046 18.11 96.8746 17.45 97.2146 16.88C97.5646 16.3 98.0396 15.85 98.6396 15.53C99.2396 15.21 99.9146 15.05 100.665 15.05C101.365 15.05 101.995 15.195 102.555 15.485C103.115 15.775 103.56 16.205 103.89 16.775C104.22 17.345 104.385 18.04 104.385 18.86C104.385 19.68 104.22 20.375 103.89 20.945C103.56 21.515 103.115 21.95 102.555 22.25C101.995 22.55 101.365 22.7 100.665 22.7ZM100.77 21.755C101.35 21.755 101.865 21.635 102.315 21.395C102.765 21.145 103.12 20.805 103.38 20.375C103.64 19.935 103.77 19.43 103.77 18.86C103.77 18.29 103.64 17.79 103.38 17.36C103.12 16.93 102.765 16.595 102.315 16.355C101.865 16.105 101.35 15.98 100.77 15.98C100.2 15.98 99.6846 16.105 99.2246 16.355C98.7746 16.595 98.4196 16.93 98.1596 17.36C97.9096 17.79 97.7846 18.29 97.7846 18.86C97.7846 19.43 97.9096 19.935 98.1596 20.375C98.4196 20.805 98.7746 21.145 99.2246 21.395C99.6846 21.635 100.2 21.755 100.77 21.755ZM111.113 23.075C110.293 23.075 109.573 22.905 108.953 22.565C108.333 22.215 107.848 21.74 107.498 21.14C107.148 20.53 106.973 19.835 106.973 19.055C106.973 18.275 107.138 17.585 107.468 16.985C107.808 16.385 108.268 15.915 108.848 15.575C109.438 15.225 110.098 15.05 110.828 15.05C111.568 15.05 112.223 15.22 112.793 15.56C113.373 15.89 113.828 16.36 114.158 16.97C114.488 17.57 114.653 18.265 114.653 19.055C114.653 19.105 114.648 19.16 114.638 19.22C114.638 19.27 114.638 19.325 114.638 19.385H107.783V18.59H114.068L113.648 18.905C113.648 18.335 113.523 17.83 113.273 17.39C113.033 16.94 112.703 16.59 112.283 16.34C111.863 16.09 111.378 15.965 110.828 15.965C110.288 15.965 109.803 16.09 109.373 16.34C108.943 16.59 108.608 16.94 108.368 17.39C108.128 17.84 108.008 18.355 108.008 18.935V19.1C108.008 19.7 108.138 20.23 108.398 20.69C108.668 21.14 109.038 21.495 109.508 21.755C109.988 22.005 110.533 22.13 111.143 22.13C111.623 22.13 112.068 22.045 112.478 21.875C112.898 21.705 113.258 21.445 113.558 21.095L114.158 21.785C113.808 22.205 113.368 22.525 112.838 22.745C112.318 22.965 111.743 23.075 111.113 23.075ZM116.926 23.075C116.706 23.075 116.516 22.995 116.356 22.835C116.206 22.675 116.131 22.48 116.131 22.25C116.131 22.01 116.206 21.815 116.356 21.665C116.516 21.515 116.706 21.44 116.926 21.44C117.146 21.44 117.331 21.515 117.481 21.665C117.641 21.815 117.721 22.01 117.721 22.25C117.721 22.48 117.641 22.675 117.481 22.835C117.331 22.995 117.146 23.075 116.926 23.075ZM118.976 25.985C118.656 25.985 118.351 25.94 118.061 25.85C117.761 25.77 117.511 25.645 117.311 25.475L117.686 24.665C118.006 24.935 118.416 25.07 118.916 25.07C119.336 25.07 119.656 24.945 119.876 24.695C120.106 24.445 120.221 24.075 120.221 23.585V15.125H121.286V23.585C121.286 24.315 121.086 24.895 120.686 25.325C120.296 25.765 119.726 25.985 118.976 25.985ZM120.761 13.385C120.541 13.385 120.356 13.31 120.206 13.16C120.056 13.01 119.981 12.83 119.981 12.62C119.981 12.41 120.056 12.235 120.206 12.095C120.356 11.945 120.541 11.87 120.761 11.87C120.981 11.87 121.166 11.94 121.316 12.08C121.466 12.22 121.541 12.395 121.541 12.605C121.541 12.825 121.466 13.01 121.316 13.16C121.176 13.31 120.991 13.385 120.761 13.385ZM126.377 23.075C125.727 23.075 125.112 22.985 124.532 22.805C123.952 22.615 123.497 22.38 123.167 22.1L123.647 21.26C123.967 21.5 124.377 21.71 124.877 21.89C125.377 22.06 125.902 22.145 126.452 22.145C127.202 22.145 127.742 22.03 128.072 21.8C128.402 21.56 128.567 21.245 128.567 20.855C128.567 20.565 128.472 20.34 128.282 20.18C128.102 20.01 127.862 19.885 127.562 19.805C127.262 19.715 126.927 19.64 126.557 19.58C126.187 19.52 125.817 19.45 125.447 19.37C125.087 19.29 124.757 19.175 124.457 19.025C124.157 18.865 123.912 18.65 123.722 18.38C123.542 18.11 123.452 17.75 123.452 17.3C123.452 16.87 123.572 16.485 123.812 16.145C124.052 15.805 124.402 15.54 124.862 15.35C125.332 15.15 125.902 15.05 126.572 15.05C127.082 15.05 127.592 15.12 128.102 15.26C128.612 15.39 129.032 15.565 129.362 15.785L128.897 16.64C128.547 16.4 128.172 16.23 127.772 16.13C127.372 16.02 126.972 15.965 126.572 15.965C125.862 15.965 125.337 16.09 124.997 16.34C124.667 16.58 124.502 16.89 124.502 17.27C124.502 17.57 124.592 17.805 124.772 17.975C124.962 18.145 125.207 18.28 125.507 18.38C125.817 18.47 126.152 18.545 126.512 18.605C126.882 18.665 127.247 18.74 127.607 18.83C127.977 18.91 128.312 19.025 128.612 19.175C128.922 19.315 129.167 19.52 129.347 19.79C129.537 20.05 129.632 20.395 129.632 20.825C129.632 21.285 129.502 21.685 129.242 22.025C128.992 22.355 128.622 22.615 128.132 22.805C127.652 22.985 127.067 23.075 126.377 23.075ZM134.797 23.075C134.037 23.075 133.352 22.905 132.742 22.565C132.142 22.215 131.667 21.74 131.317 21.14C130.967 20.53 130.792 19.835 130.792 19.055C130.792 18.265 130.967 17.57 131.317 16.97C131.667 16.37 132.142 15.9 132.742 15.56C133.342 15.22 134.027 15.05 134.797 15.05C135.577 15.05 136.267 15.22 136.867 15.56C137.477 15.9 137.952 16.37 138.292 16.97C138.642 17.57 138.817 18.265 138.817 19.055C138.817 19.835 138.642 20.53 138.292 21.14C137.952 21.74 137.477 22.215 136.867 22.565C136.257 22.905 135.567 23.075 134.797 23.075ZM134.797 22.13C135.367 22.13 135.872 22.005 136.312 21.755C136.752 21.495 137.097 21.135 137.347 20.675C137.607 20.205 137.737 19.665 137.737 19.055C137.737 18.435 137.607 17.895 137.347 17.435C137.097 16.975 136.752 16.62 136.312 16.37C135.872 16.11 135.372 15.98 134.812 15.98C134.252 15.98 133.752 16.11 133.312 16.37C132.872 16.62 132.522 16.975 132.262 17.435C132.002 17.895 131.872 18.435 131.872 19.055C131.872 19.665 132.002 20.205 132.262 20.675C132.522 21.135 132.872 21.495 133.312 21.755C133.752 22.005 134.247 22.13 134.797 22.13ZM145.011 15.05C145.651 15.05 146.211 15.175 146.691 15.425C147.181 15.665 147.561 16.035 147.831 16.535C148.111 17.035 148.251 17.665 148.251 18.425V23H147.186V18.53C147.186 17.7 146.976 17.075 146.556 16.655C146.146 16.225 145.566 16.01 144.816 16.01C144.256 16.01 143.766 16.125 143.346 16.355C142.936 16.575 142.616 16.9 142.386 17.33C142.166 17.75 142.056 18.26 142.056 18.86V23H140.991V15.125H142.011V17.285L141.846 16.88C142.096 16.31 142.496 15.865 143.046 15.545C143.596 15.215 144.251 15.05 145.011 15.05ZM157.368 26C156.338 26 155.398 25.83 154.548 25.49C153.698 25.16 152.963 24.69 152.343 24.08C151.733 23.48 151.258 22.765 150.918 21.935C150.588 21.095 150.423 20.18 150.423 19.19C150.423 18.19 150.588 17.28 150.918 16.46C151.258 15.63 151.738 14.915 152.358 14.315C152.988 13.705 153.733 13.235 154.593 12.905C155.453 12.575 156.398 12.41 157.428 12.41C158.448 12.41 159.378 12.57 160.218 12.89C161.068 13.21 161.803 13.665 162.423 14.255C163.043 14.835 163.518 15.53 163.848 16.34C164.188 17.15 164.358 18.045 164.358 19.025C164.358 19.865 164.258 20.59 164.058 21.2C163.868 21.8 163.588 22.265 163.218 22.595C162.848 22.915 162.403 23.075 161.883 23.075C161.373 23.075 160.963 22.92 160.653 22.61C160.343 22.3 160.188 21.865 160.188 21.305V20.12L160.308 19.16L160.158 17.66V15.395H161.133V21.08C161.133 21.5 161.223 21.795 161.403 21.965C161.583 22.135 161.803 22.22 162.063 22.22C162.373 22.22 162.643 22.095 162.873 21.845C163.103 21.595 163.278 21.235 163.398 20.765C163.528 20.285 163.593 19.71 163.593 19.04C163.593 18.16 163.443 17.36 163.143 16.64C162.843 15.92 162.418 15.3 161.868 14.78C161.318 14.26 160.668 13.865 159.918 13.595C159.168 13.315 158.338 13.175 157.428 13.175C156.518 13.175 155.683 13.32 154.923 13.61C154.163 13.9 153.508 14.315 152.958 14.855C152.418 15.385 151.998 16.02 151.698 16.76C151.398 17.49 151.248 18.3 151.248 19.19C151.248 20.08 151.393 20.895 151.683 21.635C151.983 22.375 152.403 23.01 152.943 23.54C153.483 24.08 154.128 24.495 154.878 24.785C155.628 25.085 156.458 25.235 157.368 25.235C157.818 25.235 158.298 25.18 158.808 25.07C159.328 24.96 159.808 24.795 160.248 24.575L160.503 25.31C160.053 25.54 159.543 25.71 158.973 25.82C158.403 25.94 157.868 26 157.368 26ZM157.188 23.075C156.478 23.075 155.843 22.91 155.283 22.58C154.723 22.24 154.278 21.78 153.948 21.2C153.628 20.61 153.468 19.94 153.468 19.19C153.468 18.44 153.628 17.775 153.948 17.195C154.278 16.615 154.723 16.16 155.283 15.83C155.843 15.5 156.478 15.335 157.188 15.335C157.878 15.335 158.488 15.49 159.018 15.8C159.558 16.11 159.978 16.555 160.278 17.135C160.588 17.705 160.743 18.39 160.743 19.19C160.743 19.99 160.588 20.68 160.278 21.26C159.978 21.84 159.563 22.29 159.033 22.61C158.503 22.92 157.888 23.075 157.188 23.075ZM157.323 22.205C157.863 22.205 158.348 22.08 158.778 21.83C159.218 21.58 159.558 21.23 159.798 20.78C160.048 20.32 160.173 19.79 160.173 19.19C160.173 18.58 160.048 18.055 159.798 17.615C159.558 17.165 159.218 16.82 158.778 16.58C158.348 16.33 157.863 16.205 157.323 16.205C156.763 16.205 156.268 16.33 155.838 16.58C155.408 16.82 155.068 17.165 154.818 17.615C154.578 18.065 154.458 18.59 154.458 19.19C154.458 19.79 154.578 20.315 154.818 20.765C155.068 21.215 155.408 21.57 155.838 21.83C156.268 22.08 156.763 22.205 157.323 22.205ZM169.971 23.075C169.151 23.075 168.431 22.905 167.811 22.565C167.191 22.215 166.706 21.74 166.356 21.14C166.006 20.53 165.831 19.835 165.831 19.055C165.831 18.275 165.996 17.585 166.326 16.985C166.666 16.385 167.126 15.915 167.706 15.575C168.296 15.225 168.956 15.05 169.686 15.05C170.426 15.05 171.081 15.22 171.651 15.56C172.231 15.89 172.686 16.36 173.016 16.97C173.346 17.57 173.511 18.265 173.511 19.055C173.511 19.105 173.506 19.16 173.496 19.22C173.496 19.27 173.496 19.325 173.496 19.385H166.641V18.59H172.926L172.506 18.905C172.506 18.335 172.381 17.83 172.131 17.39C171.891 16.94 171.561 16.59 171.141 16.34C170.721 16.09 170.236 15.965 169.686 15.965C169.146 15.965 168.661 16.09 168.231 16.34C167.801 16.59 167.466 16.94 167.226 17.39C166.986 17.84 166.866 18.355 166.866 18.935V19.1C166.866 19.7 166.996 20.23 167.256 20.69C167.526 21.14 167.896 21.495 168.366 21.755C168.846 22.005 169.391 22.13 170.001 22.13C170.481 22.13 170.926 22.045 171.336 21.875C171.756 21.705 172.116 21.445 172.416 21.095L173.016 21.785C172.666 22.205 172.226 22.525 171.696 22.745C171.176 22.965 170.601 23.075 169.971 23.075ZM185.518 15.05C186.158 15.05 186.713 15.175 187.183 15.425C187.663 15.665 188.033 16.035 188.293 16.535C188.563 17.035 188.698 17.665 188.698 18.425V23H187.633V18.53C187.633 17.7 187.433 17.075 187.033 16.655C186.643 16.225 186.088 16.01 185.368 16.01C184.828 16.01 184.358 16.125 183.958 16.355C183.568 16.575 183.263 16.9 183.043 17.33C182.833 17.75 182.728 18.26 182.728 18.86V23H181.663V18.53C181.663 17.7 181.463 17.075 181.063 16.655C180.663 16.225 180.103 16.01 179.383 16.01C178.853 16.01 178.388 16.125 177.988 16.355C177.588 16.575 177.278 16.9 177.058 17.33C176.848 17.75 176.743 18.26 176.743 18.86V23H175.678V15.125H176.698V17.255L176.533 16.88C176.773 16.31 177.158 15.865 177.688 15.545C178.228 15.215 178.863 15.05 179.593 15.05C180.363 15.05 181.018 15.245 181.558 15.635C182.098 16.015 182.448 16.59 182.608 17.36L182.188 17.195C182.418 16.555 182.823 16.04 183.403 15.65C183.993 15.25 184.698 15.05 185.518 15.05ZM196.522 23V21.26L196.477 20.975V18.065C196.477 17.395 196.287 16.88 195.907 16.52C195.537 16.16 194.982 15.98 194.242 15.98C193.732 15.98 193.247 16.065 192.787 16.235C192.327 16.405 191.937 16.63 191.617 16.91L191.137 16.115C191.537 15.775 192.017 15.515 192.577 15.335C193.137 15.145 193.727 15.05 194.347 15.05C195.367 15.05 196.152 15.305 196.702 15.815C197.262 16.315 197.542 17.08 197.542 18.11V23H196.522ZM193.807 23.075C193.217 23.075 192.702 22.98 192.262 22.79C191.832 22.59 191.502 22.32 191.272 21.98C191.042 21.63 190.927 21.23 190.927 20.78C190.927 20.37 191.022 20 191.212 19.67C191.412 19.33 191.732 19.06 192.172 18.86C192.622 18.65 193.222 18.545 193.972 18.545H196.687V19.34H194.002C193.242 19.34 192.712 19.475 192.412 19.745C192.122 20.015 191.977 20.35 191.977 20.75C191.977 21.2 192.152 21.56 192.502 21.83C192.852 22.1 193.342 22.235 193.972 22.235C194.572 22.235 195.087 22.1 195.517 21.83C195.957 21.55 196.277 21.15 196.477 20.63L196.717 21.365C196.517 21.885 196.167 22.3 195.667 22.61C195.177 22.92 194.557 23.075 193.807 23.075ZM200.434 23V15.125H201.499V23H200.434ZM200.974 13.385C200.754 13.385 200.569 13.31 200.419 13.16C200.269 13.01 200.194 12.83 200.194 12.62C200.194 12.41 200.269 12.235 200.419 12.095C200.569 11.945 200.754 11.87 200.974 11.87C201.194 11.87 201.379 11.94 201.529 12.08C201.679 12.22 201.754 12.395 201.754 12.605C201.754 12.825 201.679 13.01 201.529 13.16C201.389 13.31 201.204 13.385 200.974 13.385ZM204.463 23V11.87H205.528V23H204.463ZM208.596 23.075C208.376 23.075 208.186 22.995 208.026 22.835C207.876 22.675 207.801 22.48 207.801 22.25C207.801 22.01 207.876 21.815 208.026 21.665C208.186 21.515 208.376 21.44 208.596 21.44C208.816 21.44 209.001 21.515 209.151 21.665C209.311 21.815 209.391 22.01 209.391 22.25C209.391 22.48 209.311 22.675 209.151 22.835C209.001 22.995 208.816 23.075 208.596 23.075ZM214.72 23.075C213.94 23.075 213.24 22.905 212.62 22.565C212.01 22.215 211.53 21.74 211.18 21.14C210.83 20.53 210.655 19.835 210.655 19.055C210.655 18.265 210.83 17.57 211.18 16.97C211.53 16.37 212.01 15.9 212.62 15.56C213.24 15.22 213.94 15.05 214.72 15.05C215.39 15.05 215.995 15.18 216.535 15.44C217.075 15.7 217.5 16.09 217.81 16.61L217.015 17.15C216.745 16.75 216.41 16.455 216.01 16.265C215.61 16.075 215.175 15.98 214.705 15.98C214.145 15.98 213.64 16.11 213.19 16.37C212.74 16.62 212.385 16.975 212.125 17.435C211.865 17.895 211.735 18.435 211.735 19.055C211.735 19.675 211.865 20.215 212.125 20.675C212.385 21.135 212.74 21.495 213.19 21.755C213.64 22.005 214.145 22.13 214.705 22.13C215.175 22.13 215.61 22.035 216.01 21.845C216.41 21.655 216.745 21.365 217.015 20.975L217.81 21.515C217.5 22.025 217.075 22.415 216.535 22.685C215.995 22.945 215.39 23.075 214.72 23.075ZM222.98 23.075C222.22 23.075 221.535 22.905 220.925 22.565C220.325 22.215 219.85 21.74 219.5 21.14C219.15 20.53 218.975 19.835 218.975 19.055C218.975 18.265 219.15 17.57 219.5 16.97C219.85 16.37 220.325 15.9 220.925 15.56C221.525 15.22 222.21 15.05 222.98 15.05C223.76 15.05 224.45 15.22 225.05 15.56C225.66 15.9 226.135 16.37 226.475 16.97C226.825 17.57 227 18.265 227 19.055C227 19.835 226.825 20.53 226.475 21.14C226.135 21.74 225.66 22.215 225.05 22.565C224.44 22.905 223.75 23.075 222.98 23.075ZM222.98 22.13C223.55 22.13 224.055 22.005 224.495 21.755C224.935 21.495 225.28 21.135 225.53 20.675C225.79 20.205 225.92 19.665 225.92 19.055C225.92 18.435 225.79 17.895 225.53 17.435C225.28 16.975 224.935 16.62 224.495 16.37C224.055 16.11 223.555 15.98 222.995 15.98C222.435 15.98 221.935 16.11 221.495 16.37C221.055 16.62 220.705 16.975 220.445 17.435C220.185 17.895 220.055 18.435 220.055 19.055C220.055 19.665 220.185 20.205 220.445 20.675C220.705 21.135 221.055 21.495 221.495 21.755C221.935 22.005 222.43 22.13 222.98 22.13ZM239.014 15.05C239.654 15.05 240.209 15.175 240.679 15.425C241.159 15.665 241.529 16.035 241.789 16.535C242.059 17.035 242.194 17.665 242.194 18.425V23H241.129V18.53C241.129 17.7 240.929 17.075 240.529 16.655C240.139 16.225 239.584 16.01 238.864 16.01C238.324 16.01 237.854 16.125 237.454 16.355C237.064 16.575 236.759 16.9 236.539 17.33C236.329 17.75 236.224 18.26 236.224 18.86V23H235.159V18.53C235.159 17.7 234.959 17.075 234.559 16.655C234.159 16.225 233.599 16.01 232.879 16.01C232.349 16.01 231.884 16.125 231.484 16.355C231.084 16.575 230.774 16.9 230.554 17.33C230.344 17.75 230.239 18.26 230.239 18.86V23H229.174V15.125H230.194V17.255L230.029 16.88C230.269 16.31 230.654 15.865 231.184 15.545C231.724 15.215 232.359 15.05 233.089 15.05C233.859 15.05 234.514 15.245 235.054 15.635C235.594 16.015 235.944 16.59 236.104 17.36L235.684 17.195C235.914 16.555 236.319 16.04 236.899 15.65C237.489 15.25 238.194 15.05 239.014 15.05Z" fill="#7B7B7B"/>
<g clip-path="url(#clip0_10_173)">
<path d="M20 41C31.0457 41 40 31.8218 40 20.5C40 9.17816 31.0457 0 20 0C8.9543 0 0 9.17816 0 20.5C0 31.8218 8.9543 41 20 41Z" fill="#7B7B7B"/>
<path d="M28.6635 11.67C27.5293 10.5066 26.1826 9.58363 24.7002 8.95393C23.2179 8.32423 21.629 8.00012 20.0244 8.00012C18.4199 8.00012 16.831 8.32423 15.3487 8.95393C13.8663 9.58363 12.5196 10.5066 11.3854 11.67C10.2504 12.8325 9.34993 14.2129 8.7356 15.7323C8.12126 17.2517 7.80505 18.8803 7.80505 20.525C7.80505 22.1697 8.12126 23.7983 8.7356 25.3177C9.34993 26.8371 10.2504 28.2175 11.3854 29.38C13.2308 31.272 15.6188 32.5087 18.1995 32.9087C20.7803 33.3087 23.4182 32.8512 25.7269 31.603C25.8315 31.5463 25.9242 31.4691 25.9997 31.3757C26.0752 31.2823 26.132 31.1746 26.1669 31.0587C26.2017 30.9428 26.214 30.8211 26.203 30.7003C26.1919 30.5796 26.1578 30.4622 26.1025 30.355C26.0472 30.2478 25.9719 30.1528 25.8808 30.0754C25.7896 29.998 25.6846 29.9398 25.5715 29.904C25.4584 29.8683 25.3396 29.8557 25.2218 29.867C25.104 29.8783 24.9895 29.9133 24.8849 29.97C22.8717 31.0595 20.5658 31.4431 18.3198 31.0622C16.0738 30.6813 14.0113 29.5568 12.4478 27.8607C10.8843 26.1646 9.90577 23.9903 9.66194 21.6702C9.4181 19.3502 9.92235 17.0121 11.0976 15.0136C12.2728 13.0151 14.0543 11.4662 16.1696 10.6037C18.285 9.7412 20.6177 9.61262 22.8111 10.2376C25.0044 10.8626 26.9377 12.2068 28.3153 14.0646C29.6928 15.9224 30.4388 18.1915 30.4391 20.525C30.5234 21.84 30.1725 23.1458 29.443 24.231C29.2396 24.5276 28.9728 24.7726 28.6628 24.9471C28.3528 25.1217 28.008 25.2212 27.6547 25.238C26.7483 25.238 25.8323 24.499 25.8323 22.846V15.653C25.8323 15.4079 25.7373 15.1729 25.5682 14.9996C25.3992 14.8263 25.1699 14.729 24.9308 14.729C24.6917 14.729 24.4624 14.8263 24.2934 14.9996C24.1243 15.1729 24.0293 15.4079 24.0293 15.653V16.059C23.3119 15.3194 22.4275 14.7727 21.4545 14.4675C20.4815 14.1622 19.45 14.1079 18.4516 14.3092C17.4532 14.5105 16.5188 14.9613 15.7311 15.6216C14.9434 16.2819 14.327 17.1313 13.9363 18.0943C13.5457 19.0574 13.3931 20.1044 13.4919 21.1425C13.5907 22.1805 13.938 23.1775 14.5029 24.045C15.0677 24.9125 15.8328 25.6237 16.7301 26.1154C17.6275 26.6072 18.6293 26.8643 19.6469 26.864C20.2475 26.8661 20.845 26.7761 21.4196 26.597C21.6487 26.527 21.8413 26.3665 21.955 26.151C22.0687 25.9354 22.0942 25.6823 22.0259 25.4475C21.9576 25.2126 21.8011 25.0152 21.5908 24.8987C21.3804 24.7821 21.1336 24.756 20.9044 24.826C20.4962 24.9502 20.0727 25.0139 19.6469 25.015C18.7801 25.015 17.9327 24.7515 17.212 24.2579C16.4913 23.7643 15.9296 23.0626 15.5979 22.2418C15.2663 21.4209 15.1795 20.5177 15.3487 19.6463C15.5179 18.7749 15.9354 17.9745 16.5484 17.3463C17.1614 16.7181 17.9423 16.2904 18.7925 16.1172C19.6427 15.944 20.5239 16.0331 21.3246 16.3732C22.1254 16.7134 22.8098 17.2893 23.2912 18.0281C23.7727 18.7669 24.0295 19.6355 24.0293 20.524V22.845C24.0293 25.627 25.8518 27.085 27.6547 27.085C28.2822 27.0682 28.8977 26.9044 29.4541 26.6063C30.0104 26.3082 30.4928 25.8836 30.8644 25.365C31.8329 23.9517 32.317 22.2493 32.241 20.524C32.2459 18.879 31.9321 17.2493 31.318 15.7295C30.7039 14.2096 29.8016 12.8298 28.6635 11.67Z" fill="white"/>
</g>
<defs>
<clipPath id="clip0_10_173">
<rect width="40" height="41" fill="white"/>
</clipPath>
</defs>
</svg>
