<svg width="41" height="41" viewBox="0 0 41 41" fill="none" xmlns="http://www.w3.org/2000/svg">
<g clip-path="url(#clip0_10_142)">
<path d="M20.5 41C31.8218 41 41 31.8218 41 20.5C41 9.17816 31.8218 0 20.5 0C9.17816 0 0 9.17816 0 20.5C0 31.8218 9.17816 41 20.5 41Z" fill="#7B7B7B"/>
<path fill-rule="evenodd" clip-rule="evenodd" d="M22.1695 17.2649V15.8719C22.1548 15.7653 22.1638 15.6566 22.1959 15.5539C22.2281 15.4511 22.2826 15.3567 22.3555 15.2775C22.4284 15.1982 22.518 15.1361 22.6177 15.0956C22.7175 15.055 22.825 15.037 22.9325 15.0429H24.8815V12.0669H22.1985C21.7097 12.0248 21.2176 12.0897 20.7564 12.2572C20.2952 12.4247 19.8761 12.6907 19.5282 13.0367C19.1804 13.3828 18.9122 13.8005 18.7423 14.2608C18.5724 14.7211 18.5049 15.2129 18.5445 15.7019V17.2649H16.8115V20.7399H18.5625V29.4219H22.0375V20.7399H24.6075L24.7205 19.3749L24.9275 17.2659L22.1695 17.2649Z" fill="white"/>
</g>
<defs>
<clipPath id="clip0_10_142">
<rect width="41" height="41" fill="white"/>
</clipPath>
</defs>
</svg>
