<svg width="86" height="86" viewBox="0 0 86 86" fill="none" xmlns="http://www.w3.org/2000/svg">
<circle cx="43" cy="43" r="43" fill="#98E832" fill-opacity="0.75"/>
<path d="M62.8068 23.1989C62.7027 22.4318 62.5133 21.7453 62.2386 21.1392C61.964 20.5237 61.5947 20.0028 61.1307 19.5767C60.6667 19.1411 60.1032 18.8097 59.4403 18.5824C58.7775 18.3551 58.0057 18.2415 57.125 18.2415C55.5625 18.2415 54.0805 18.6345 52.679 19.4205C51.2775 20.2064 50.0795 21.3617 49.0852 22.8864C48.0909 24.4015 47.4138 26.2481 47.054 28.4261C46.6941 30.6231 46.7131 32.4839 47.1108 34.0085C47.5085 35.5331 48.2377 36.6932 49.2983 37.4886C50.3684 38.2746 51.7131 38.6676 53.3324 38.6676C54.8191 38.6676 56.1686 38.3835 57.3807 37.8153C58.5928 37.2472 59.5966 36.4422 60.392 35.4006C61.197 34.3494 61.7083 33.1184 61.9261 31.7074L63.0909 31.892H55.179L55.8892 27.7727H67.6932L67.0966 31.267C66.6894 33.767 65.804 35.9261 64.4403 37.7443C63.0862 39.553 61.3958 40.9498 59.3693 41.9347C57.3523 42.91 55.1411 43.3977 52.7358 43.3977C50.0653 43.3977 47.8163 42.7964 45.9886 41.5938C44.1705 40.3816 42.8826 38.6629 42.125 36.4375C41.3674 34.2027 41.2443 31.5511 41.7557 28.483C42.1345 26.1345 42.8068 24.0369 43.7727 22.1903C44.7481 20.3438 45.9413 18.7765 47.3523 17.4886C48.7727 16.1913 50.3494 15.2064 52.0824 14.5341C53.8153 13.8523 55.6335 13.5114 57.5369 13.5114C59.1373 13.5114 60.5956 13.7481 61.9119 14.2216C63.2282 14.6856 64.3551 15.3485 65.2926 16.2102C66.2396 17.072 66.964 18.0947 67.4659 19.2784C67.9678 20.4621 68.2045 21.7689 68.1761 23.1989H62.8068Z" fill="black"/>
<path d="M32.358 42.9091H37.5852L34.1761 63.4347C33.8731 65.3002 33.2292 66.9053 32.2443 68.25C31.2689 69.5852 30.0284 70.6127 28.5227 71.3324C27.0265 72.0426 25.3314 72.3977 23.4375 72.3977C21.7235 72.3977 20.2273 72.0947 18.9489 71.4886C17.6705 70.8731 16.7282 69.964 16.1222 68.7614C15.5161 67.5492 15.3598 66.053 15.6534 64.2727H20.8239C20.7102 65.0777 20.767 65.7642 20.9943 66.3324C21.2311 66.9006 21.6098 67.3314 22.1307 67.625C22.661 67.9186 23.3144 68.0653 24.0909 68.0653C24.9527 68.0653 25.715 67.8807 26.3778 67.5114C27.0502 67.142 27.6089 66.6023 28.054 65.892C28.4991 65.1818 28.8116 64.3153 28.9915 63.2926L32.358 42.9091Z" fill="black"/>
<line x1="26" y1="41.5" x2="44" y2="41.5" stroke="black" stroke-width="3"/>
</svg>
