<svg width="48" height="48" viewBox="0 0 48 48" fill="none" xmlns="http://www.w3.org/2000/svg">
<path d="M41 14H7C6.46957 14 5.96086 13.7893 5.58579 13.4142C5.21071 13.0391 5 12.5304 5 12C5 11.4696 5.21071 10.9609 5.58579 10.5858C5.96086 10.2107 6.46957 10 7 10H41C41.5304 10 42.0391 10.2107 42.4142 10.5858C42.7893 10.9609 43 11.4696 43 12C43 12.5304 42.7893 13.0391 42.4142 13.4142C42.0391 13.7893 41.5304 14 41 14Z" fill="white"/>
<path d="M41 26H7C6.46957 26 5.96086 25.7893 5.58579 25.4142C5.21071 25.0391 5 24.5304 5 24C5 23.4696 5.21071 22.9609 5.58579 22.5858C5.96086 22.2107 6.46957 22 7 22H41C41.5304 22 42.0391 22.2107 42.4142 22.5858C42.7893 22.9609 43 23.4696 43 24C43 24.5304 42.7893 25.0391 42.4142 25.4142C42.0391 25.7893 41.5304 26 41 26Z" fill="white"/>
<path d="M41 38H7C6.46957 38 5.96086 37.7893 5.58579 37.4142C5.21071 37.0391 5 36.5304 5 36C5 35.4696 5.21071 34.9609 5.58579 34.5858C5.96086 34.2107 6.46957 34 7 34H41C41.5304 34 42.0391 34.2107 42.4142 34.5858C42.7893 34.9609 43 35.4696 43 36C43 36.5304 42.7893 37.0391 42.4142 37.4142C42.0391 37.7893 41.5304 38 41 38Z" fill="white"/>
</svg>
