<svg width="41" height="41" viewBox="0 0 41 41" fill="none" xmlns="http://www.w3.org/2000/svg">
<g clip-path="url(#clip0_10_188)">
<path d="M20.5 41C31.8218 41 41 31.8218 41 20.5C41 9.17816 31.8218 0 20.5 0C9.17816 0 0 9.17816 0 20.5C0 31.8218 9.17816 41 20.5 41Z" fill="#B7B7B7"/>
<path d="M24.0002 12.3H17.0002C14.4002 12.3 12.2002 14.4 12.2002 17.1V24.1C12.2002 26.7 14.3002 28.9 17.0002 28.9H24.0002C26.6002 28.9 28.8002 26.8 28.8002 24.1V17.1C28.7002 14.4 26.6002 12.3 24.0002 12.3ZM27.2002 24.1C27.2002 25.8 25.8002 27.3 24.0002 27.3H16.9002C15.2002 27.3 13.7002 25.9 13.7002 24.1V17C13.7002 15.3 15.1002 13.8 16.9002 13.8H24.0002C25.7002 13.8 27.2002 15.2 27.2002 17V24.1Z" fill="white"/>
<path d="M20.5002 16.3C18.1002 16.3 16.2002 18.2 16.2002 20.6C16.2002 23.0001 18.1002 24.9 20.5002 24.9C22.9002 24.9 24.8002 23.0001 24.8002 20.6C24.8002 18.2 22.9002 16.3 20.5002 16.3ZM20.5002 23.3C19.0002 23.3 17.7002 22.1 17.7002 20.5C17.7002 19 18.9002 17.7001 20.5002 17.7001C22.0002 17.7001 23.3002 18.9 23.3002 20.5C23.3002 22.1 22.0002 23.3 20.5002 23.3Z" fill="white"/>
<path d="M24.9004 17.1001C25.4527 17.1001 25.9004 16.6524 25.9004 16.1001C25.9004 15.5478 25.4527 15.1001 24.9004 15.1001C24.3481 15.1001 23.9004 15.5478 23.9004 16.1001C23.9004 16.6524 24.3481 17.1001 24.9004 17.1001Z" fill="white"/>
</g>
<defs>
<clipPath id="clip0_10_188">
<rect width="41" height="41" fill="white"/>
</clipPath>
</defs>
</svg>
