<svg width="205" height="31" viewBox="0 0 205 31" fill="none" xmlns="http://www.w3.org/2000/svg">
<path d="M9.7 24.24C8.34 24.24 7.15 23.94 6.13 23.34C5.11 22.74 4.31 21.83 3.73 20.61C3.17 19.37 2.89 17.81 2.89 15.93C2.89 14.03 3.16 12.47 3.7 11.25C4.24 10.03 5.02 9.12 6.04 8.52C7.06 7.92 8.28 7.62 9.7 7.62C11.22 7.62 12.58 7.97 13.78 8.67C15 9.35 15.96 10.31 16.66 11.55C17.38 12.79 17.74 14.25 17.74 15.93C17.74 17.63 17.38 19.1 16.66 20.34C15.96 21.58 15 22.54 13.78 23.22C12.58 23.9 11.22 24.24 9.7 24.24ZM0.16 29.82V7.86H4.63V11.16L4.54 15.96L4.84 20.73V29.82H0.16ZM8.89 20.4C9.67 20.4 10.36 20.22 10.96 19.86C11.58 19.5 12.07 18.99 12.43 18.33C12.81 17.65 13 16.85 13 15.93C13 14.99 12.81 14.19 12.43 13.53C12.07 12.87 11.58 12.36 10.96 12C10.36 11.64 9.67 11.46 8.89 11.46C8.11 11.46 7.41 11.64 6.79 12C6.17 12.36 5.68 12.87 5.32 13.53C4.96 14.19 4.78 14.99 4.78 15.93C4.78 16.85 4.96 17.65 5.32 18.33C5.68 18.99 6.17 19.5 6.79 19.86C7.41 20.22 8.11 20.4 8.89 20.4ZM30.5092 24V20.85L30.2092 20.16V14.52C30.2092 13.52 29.8992 12.74 29.2792 12.18C28.6792 11.62 27.7492 11.34 26.4892 11.34C25.6292 11.34 24.7792 11.48 23.9392 11.76C23.1192 12.02 22.4192 12.38 21.8392 12.84L20.1592 9.57C21.0392 8.95 22.0992 8.47 23.3392 8.13C24.5792 7.79 25.8392 7.62 27.1192 7.62C29.5792 7.62 31.4892 8.2 32.8492 9.36C34.2092 10.52 34.8892 12.33 34.8892 14.79V24H30.5092ZM25.5892 24.24C24.3292 24.24 23.2492 24.03 22.3492 23.61C21.4492 23.17 20.7592 22.58 20.2792 21.84C19.7992 21.1 19.5592 20.27 19.5592 19.35C19.5592 18.39 19.7892 17.55 20.2492 16.83C20.7292 16.11 21.4792 15.55 22.4992 15.15C23.5192 14.73 24.8492 14.52 26.4892 14.52H30.7792V17.25H26.9992C25.8992 17.25 25.1392 17.43 24.7192 17.79C24.3192 18.15 24.1192 18.6 24.1192 19.14C24.1192 19.74 24.3492 20.22 24.8092 20.58C25.2892 20.92 25.9392 21.09 26.7592 21.09C27.5392 21.09 28.2392 20.91 28.8592 20.55C29.4792 20.17 29.9292 19.62 30.2092 18.9L30.9292 21.06C30.5892 22.1 29.9692 22.89 29.0692 23.43C28.1692 23.97 27.0092 24.24 25.5892 24.24ZM47.042 24.24C45.302 24.24 43.752 23.89 42.392 23.19C41.032 22.47 39.962 21.48 39.182 20.22C38.422 18.96 38.042 17.53 38.042 15.93C38.042 14.31 38.422 12.88 39.182 11.64C39.962 10.38 41.032 9.4 42.392 8.7C43.752 7.98 45.302 7.62 47.042 7.62C48.742 7.62 50.222 7.98 51.482 8.7C52.742 9.4 53.672 10.41 54.272 11.73L50.642 13.68C50.222 12.92 49.692 12.36 49.052 12C48.432 11.64 47.752 11.46 47.012 11.46C46.212 11.46 45.492 11.64 44.852 12C44.212 12.36 43.702 12.87 43.322 13.53C42.962 14.19 42.782 14.99 42.782 15.93C42.782 16.87 42.962 17.67 43.322 18.33C43.702 18.99 44.212 19.5 44.852 19.86C45.492 20.22 46.212 20.4 47.012 20.4C47.752 20.4 48.432 20.23 49.052 19.89C49.692 19.53 50.222 18.96 50.642 18.18L54.272 20.16C53.672 21.46 52.742 22.47 51.482 23.19C50.222 23.89 48.742 24.24 47.042 24.24ZM60.7488 20.7L60.8688 15L68.3988 7.86H73.9788L66.7488 15.21L64.3188 17.19L60.7488 20.7ZM56.8788 24V1.74H61.5588V24H56.8788ZM68.9088 24L63.4488 17.22L66.3888 13.59L74.5788 24H68.9088ZM86.2905 24V20.85L85.9905 20.16V14.52C85.9905 13.52 85.6805 12.74 85.0605 12.18C84.4605 11.62 83.5305 11.34 82.2705 11.34C81.4105 11.34 80.5605 11.48 79.7205 11.76C78.9005 12.02 78.2005 12.38 77.6205 12.84L75.9405 9.57C76.8205 8.95 77.8805 8.47 79.1205 8.13C80.3605 7.79 81.6205 7.62 82.9005 7.62C85.3605 7.62 87.2705 8.2 88.6305 9.36C89.9905 10.52 90.6705 12.33 90.6705 14.79V24H86.2905ZM81.3705 24.24C80.1105 24.24 79.0305 24.03 78.1305 23.61C77.2305 23.17 76.5405 22.58 76.0605 21.84C75.5805 21.1 75.3405 20.27 75.3405 19.35C75.3405 18.39 75.5705 17.55 76.0305 16.83C76.5105 16.11 77.2605 15.55 78.2805 15.15C79.3005 14.73 80.6305 14.52 82.2705 14.52H86.5605V17.25H82.7805C81.6805 17.25 80.9205 17.43 80.5005 17.79C80.1005 18.15 79.9005 18.6 79.9005 19.14C79.9005 19.74 80.1305 20.22 80.5905 20.58C81.0705 20.92 81.7205 21.09 82.5405 21.09C83.3205 21.09 84.0205 20.91 84.6405 20.55C85.2605 20.17 85.7105 19.62 85.9905 18.9L86.7105 21.06C86.3705 22.1 85.7505 22.89 84.8505 23.43C83.9505 23.97 82.7905 24.24 81.3705 24.24ZM102.613 30.06C101.093 30.06 99.6233 29.87 98.2033 29.49C96.8033 29.13 95.6333 28.58 94.6933 27.84L96.5533 24.48C97.2333 25.04 98.0933 25.48 99.1333 25.8C100.193 26.14 101.233 26.31 102.253 26.31C103.913 26.31 105.113 25.94 105.853 25.2C106.613 24.46 106.993 23.36 106.993 21.9V19.47L107.293 15.42L107.233 11.34V7.86H111.673V21.3C111.673 24.3 110.893 26.51 109.333 27.93C107.773 29.35 105.533 30.06 102.613 30.06ZM101.893 23.22C100.393 23.22 99.0333 22.9 97.8133 22.26C96.6133 21.6 95.6433 20.69 94.9033 19.53C94.1833 18.35 93.8233 16.98 93.8233 15.42C93.8233 13.84 94.1833 12.47 94.9033 11.31C95.6433 10.13 96.6133 9.22 97.8133 8.58C99.0333 7.94 100.393 7.62 101.893 7.62C103.253 7.62 104.453 7.9 105.493 8.46C106.533 9 107.343 9.85 107.923 11.01C108.503 12.15 108.793 13.62 108.793 15.42C108.793 17.2 108.503 18.67 107.923 19.83C107.343 20.97 106.533 21.82 105.493 22.38C104.453 22.94 103.253 23.22 101.893 23.22ZM102.823 19.38C103.643 19.38 104.373 19.22 105.013 18.9C105.653 18.56 106.153 18.09 106.513 17.49C106.873 16.89 107.053 16.2 107.053 15.42C107.053 14.62 106.873 13.93 106.513 13.35C106.153 12.75 105.653 12.29 105.013 11.97C104.373 11.63 103.643 11.46 102.823 11.46C102.003 11.46 101.273 11.63 100.633 11.97C99.9933 12.29 99.4833 12.75 99.1033 13.35C98.7433 13.93 98.5633 14.62 98.5633 15.42C98.5633 16.2 98.7433 16.89 99.1033 17.49C99.4833 18.09 99.9933 18.56 100.633 18.9C101.273 19.22 102.003 19.38 102.823 19.38ZM124.039 24.24C122.199 24.24 120.579 23.88 119.179 23.16C117.799 22.44 116.729 21.46 115.969 20.22C115.209 18.96 114.829 17.53 114.829 15.93C114.829 14.31 115.199 12.88 115.939 11.64C116.699 10.38 117.729 9.4 119.029 8.7C120.329 7.98 121.799 7.62 123.439 7.62C125.019 7.62 126.439 7.96 127.699 8.64C128.979 9.3 129.989 10.26 130.729 11.52C131.469 12.76 131.839 14.25 131.839 15.99C131.839 16.17 131.829 16.38 131.809 16.62C131.789 16.84 131.769 17.05 131.749 17.25H118.639V14.52H129.289L127.489 15.33C127.489 14.49 127.319 13.76 126.979 13.14C126.639 12.52 126.169 12.04 125.569 11.7C124.969 11.34 124.269 11.16 123.469 11.16C122.669 11.16 121.959 11.34 121.339 11.7C120.739 12.04 120.269 12.53 119.929 13.17C119.589 13.79 119.419 14.53 119.419 15.39V16.11C119.419 16.99 119.609 17.77 119.989 18.45C120.389 19.11 120.939 19.62 121.639 19.98C122.359 20.32 123.199 20.49 124.159 20.49C125.019 20.49 125.769 20.36 126.409 20.1C127.069 19.84 127.669 19.45 128.209 18.93L130.699 21.63C129.959 22.47 129.029 23.12 127.909 23.58C126.789 24.02 125.499 24.24 124.039 24.24ZM136.725 24.24C135.925 24.24 135.235 23.97 134.655 23.43C134.095 22.87 133.815 22.16 133.815 21.3C133.815 20.44 134.095 19.75 134.655 19.23C135.235 18.69 135.925 18.42 136.725 18.42C137.545 18.42 138.235 18.69 138.795 19.23C139.355 19.75 139.635 20.44 139.635 21.3C139.635 22.16 139.355 22.87 138.795 23.43C138.235 23.97 137.545 24.24 136.725 24.24ZM141.899 30.06C141.179 30.06 140.489 29.98 139.829 29.82C139.169 29.68 138.609 29.46 138.149 29.16L139.409 25.77C139.949 26.15 140.609 26.34 141.389 26.34C141.969 26.34 142.429 26.14 142.769 25.74C143.129 25.36 143.309 24.78 143.309 24V7.86H147.989V23.97C147.989 25.83 147.459 27.31 146.399 28.41C145.339 29.51 143.839 30.06 141.899 30.06ZM145.649 5.61C144.789 5.61 144.089 5.36 143.549 4.86C143.009 4.36 142.739 3.74 142.739 3C142.739 2.26 143.009 1.64 143.549 1.14C144.089 0.639999 144.789 0.389998 145.649 0.389998C146.509 0.389998 147.209 0.629999 147.749 1.11C148.289 1.57 148.559 2.17 148.559 2.91C148.559 3.69 148.289 4.34 147.749 4.86C147.229 5.36 146.529 5.61 145.649 5.61ZM157.729 24.24C156.349 24.24 155.019 24.08 153.739 23.76C152.479 23.42 151.479 23 150.739 22.5L152.299 19.14C153.039 19.6 153.909 19.98 154.909 20.28C155.929 20.56 156.929 20.7 157.909 20.7C158.989 20.7 159.749 20.57 160.189 20.31C160.649 20.05 160.879 19.69 160.879 19.23C160.879 18.85 160.699 18.57 160.339 18.39C159.999 18.19 159.539 18.04 158.959 17.94C158.379 17.84 157.739 17.74 157.039 17.64C156.359 17.54 155.669 17.41 154.969 17.25C154.269 17.07 153.629 16.81 153.049 16.47C152.469 16.13 151.999 15.67 151.639 15.09C151.299 14.51 151.129 13.76 151.129 12.84C151.129 11.82 151.419 10.92 151.999 10.14C152.599 9.36 153.459 8.75 154.579 8.31C155.699 7.85 157.039 7.62 158.599 7.62C159.699 7.62 160.819 7.74 161.959 7.98C163.099 8.22 164.049 8.57 164.809 9.03L163.249 12.36C162.469 11.9 161.679 11.59 160.879 11.43C160.099 11.25 159.339 11.16 158.599 11.16C157.559 11.16 156.799 11.3 156.319 11.58C155.839 11.86 155.599 12.22 155.599 12.66C155.599 13.06 155.769 13.36 156.109 13.56C156.469 13.76 156.939 13.92 157.519 14.04C158.099 14.16 158.729 14.27 159.409 14.37C160.109 14.45 160.809 14.58 161.509 14.76C162.209 14.94 162.839 15.2 163.399 15.54C163.979 15.86 164.449 16.31 164.809 16.89C165.169 17.45 165.349 18.19 165.349 19.11C165.349 20.11 165.049 21 164.449 21.78C163.849 22.54 162.979 23.14 161.839 23.58C160.719 24.02 159.349 24.24 157.729 24.24ZM175.916 24.24C174.196 24.24 172.666 23.88 171.326 23.16C170.006 22.44 168.956 21.46 168.176 20.22C167.416 18.96 167.036 17.53 167.036 15.93C167.036 14.31 167.416 12.88 168.176 11.64C168.956 10.38 170.006 9.4 171.326 8.7C172.666 7.98 174.196 7.62 175.916 7.62C177.616 7.62 179.136 7.98 180.476 8.7C181.816 9.4 182.866 10.37 183.626 11.61C184.386 12.85 184.766 14.29 184.766 15.93C184.766 17.53 184.386 18.96 183.626 20.22C182.866 21.46 181.816 22.44 180.476 23.16C179.136 23.88 177.616 24.24 175.916 24.24ZM175.916 20.4C176.696 20.4 177.396 20.22 178.016 19.86C178.636 19.5 179.126 18.99 179.486 18.33C179.846 17.65 180.026 16.85 180.026 15.93C180.026 14.99 179.846 14.19 179.486 13.53C179.126 12.87 178.636 12.36 178.016 12C177.396 11.64 176.696 11.46 175.916 11.46C175.136 11.46 174.436 11.64 173.816 12C173.196 12.36 172.696 12.87 172.316 13.53C171.956 14.19 171.776 14.99 171.776 15.93C171.776 16.85 171.956 17.65 172.316 18.33C172.696 18.99 173.196 19.5 173.816 19.86C174.436 20.22 175.136 20.4 175.916 20.4ZM197.704 7.62C198.984 7.62 200.124 7.88 201.124 8.4C202.144 8.9 202.944 9.68 203.524 10.74C204.104 11.78 204.394 13.12 204.394 14.76V24H199.714V15.48C199.714 14.18 199.424 13.22 198.844 12.6C198.284 11.98 197.484 11.67 196.444 11.67C195.704 11.67 195.034 11.83 194.434 12.15C193.854 12.45 193.394 12.92 193.054 13.56C192.734 14.2 192.574 15.02 192.574 16.02V24H187.894V7.86H192.364V12.33L191.524 10.98C192.104 9.9 192.934 9.07 194.014 8.49C195.094 7.91 196.324 7.62 197.704 7.62Z" fill="white"/>
</svg>
