<svg width="224" height="41" viewBox="0 0 224 41" fill="none" xmlns="http://www.w3.org/2000/svg">
<g clip-path="url(#clip0_10_172)">
<path d="M20 41C31.0457 41 40 31.8218 40 20.5C40 9.17816 31.0457 0 20 0C8.9543 0 0 9.17816 0 20.5C0 31.8218 8.9543 41 20 41Z" fill="#7B7B7B"/>
<path d="M25.7502 23.085C25.5783 22.889 25.369 22.7312 25.1352 22.6215C24.9015 22.5118 24.6482 22.4524 24.3912 22.447C24.1325 22.4535 23.8778 22.513 23.6419 22.6219C23.406 22.7307 23.1937 22.8868 23.0175 23.081L21.7492 24.381C21.6448 24.323 21.5404 24.27 21.4399 24.216C21.2956 24.142 21.159 24.072 21.0429 23.998C19.7841 23.1588 18.6676 22.1144 17.7375 20.906C17.3063 20.3699 16.9422 19.7807 16.6536 19.152C16.9824 18.844 17.2878 18.523 17.5853 18.213C17.6975 18.098 17.8097 17.978 17.9219 17.863C18.1045 17.7004 18.254 17.5025 18.3619 17.2807C18.4699 17.0588 18.5341 16.8173 18.551 16.57C18.5678 16.3227 18.5369 16.0744 18.4601 15.8394C18.3833 15.6043 18.2621 15.387 18.1034 15.2C18.0468 15.1341 17.9862 15.0719 17.9219 15.014L16.8253 13.89C16.7004 13.762 16.5726 13.63 16.4517 13.498C16.2107 13.243 15.958 12.979 15.6965 12.732C15.522 12.5456 15.3131 12.3967 15.082 12.2937C14.8509 12.1907 14.6022 12.1357 14.3502 12.132C13.836 12.1416 13.3458 12.357 12.9843 12.732L12.9765 12.744L11.6107 14.155C11.1045 14.6648 10.7951 15.3449 10.7395 16.07C10.6927 17.1145 10.8681 18.1569 11.2536 19.125C11.9721 21.0457 13.0117 22.8233 14.3258 24.378C16.0481 26.5026 18.194 28.2248 20.6195 29.429C21.7206 30.0119 22.9197 30.375 24.1531 30.499C24.238 30.499 24.3258 30.507 24.4068 30.507C24.8419 30.5177 25.2742 30.4321 25.6741 30.2559C26.074 30.0797 26.4321 29.8171 26.7239 29.486C26.7239 29.478 26.7365 29.474 26.7395 29.466C26.9608 29.2053 27.1953 28.9566 27.4419 28.721C27.6146 28.551 27.7921 28.375 27.9638 28.19C28.3396 27.8147 28.5571 27.3036 28.5697 26.766C28.5647 26.4999 28.5073 26.2376 28.401 25.9948C28.2948 25.752 28.1417 25.5337 27.9512 25.353L25.7502 23.085Z" fill="white"/>
<path d="M20.9951 15.642C22.045 15.8289 23.013 16.3438 23.7666 17.1162C24.5202 17.8886 25.0225 18.8808 25.2048 19.957C25.2394 20.0924 25.3222 20.2096 25.4369 20.2855C25.5515 20.3615 25.6898 20.3907 25.8244 20.3673C25.9591 20.344 26.0803 20.2698 26.1642 20.1595C26.2482 20.0491 26.2888 19.9105 26.278 19.771C26.059 18.4684 25.4518 17.2672 24.5399 16.3325C23.628 15.3978 22.4562 14.7755 21.1853 14.551C21.0438 14.5269 20.8986 14.5609 20.7814 14.6457C20.6641 14.7305 20.5842 14.8592 20.559 15.004C20.533 15.1472 20.5635 15.2951 20.6438 15.4153C20.7241 15.5354 20.8476 15.618 20.9873 15.645L20.9951 15.642Z" fill="white"/>
<path d="M29.7179 19.607C29.3564 17.4612 28.3559 15.4826 26.8537 13.9429C25.3515 12.4031 23.4212 11.3776 21.3277 11.007C21.1854 10.9831 21.0397 11.0182 20.9226 11.1044C20.8055 11.1907 20.7266 11.3211 20.7033 11.467C20.68 11.6129 20.7142 11.7622 20.7984 11.8823C20.8825 12.0023 21.0098 12.0831 21.1521 12.107C23.022 12.4381 24.7462 13.3543 26.088 14.7296C27.4299 16.105 28.3237 17.8723 28.6467 19.789C28.6676 19.9186 28.7329 20.0364 28.8309 20.121C28.9289 20.2057 29.0532 20.2518 29.1814 20.251C29.2121 20.251 29.2428 20.248 29.2731 20.242C29.4125 20.2208 29.538 20.1436 29.622 20.0275C29.706 19.9115 29.7415 19.7659 29.7209 19.623L29.7179 19.607Z" fill="white"/>
</g>
<path d="M58.84 25.93V19.57H59.785V25.93H58.84ZM56.05 23.2V22.315H62.575V23.2H56.05ZM67.25 28.09C66.49 28.09 65.77 27.97 65.09 27.73C64.42 27.48 63.88 27.15 63.47 26.74L63.995 25.885C64.335 26.235 64.79 26.525 65.36 26.755C65.94 26.985 66.57 27.1 67.25 27.1C68.12 27.1 68.785 26.91 69.245 26.53C69.715 26.15 69.95 25.64 69.95 25C69.95 24.36 69.72 23.85 69.26 23.47C68.81 23.09 68.095 22.9 67.115 22.9H66.365V22.105L69.605 18.04L69.755 18.46H63.905V17.5H70.655V18.265L67.415 22.33L66.89 21.985H67.295C68.555 21.985 69.495 22.265 70.115 22.825C70.745 23.385 71.06 24.105 71.06 24.985C71.06 25.575 70.92 26.105 70.64 26.575C70.36 27.045 69.935 27.415 69.365 27.685C68.805 27.955 68.1 28.09 67.25 28.09ZM75.7503 28.09C75.0003 28.09 74.2853 27.97 73.6053 27.73C72.9253 27.48 72.3853 27.15 71.9853 26.74L72.5103 25.885C72.8403 26.235 73.2903 26.525 73.8603 26.755C74.4403 26.985 75.0653 27.1 75.7353 27.1C76.6253 27.1 77.3003 26.905 77.7603 26.515C78.2303 26.115 78.4653 25.595 78.4653 24.955C78.4653 24.505 78.3553 24.12 78.1353 23.8C77.9253 23.47 77.5653 23.215 77.0553 23.035C76.5453 22.855 75.8453 22.765 74.9553 22.765H72.7203L73.2603 17.5H79.0053V18.46H73.6953L74.2503 17.935L73.7853 22.345L73.2303 21.805H75.1953C76.2553 21.805 77.1053 21.935 77.7453 22.195C78.3853 22.455 78.8453 22.82 79.1253 23.29C79.4153 23.75 79.5603 24.29 79.5603 24.91C79.5603 25.5 79.4203 26.04 79.1403 26.53C78.8603 27.01 78.4403 27.39 77.8803 27.67C77.3203 27.95 76.6103 28.09 75.7503 28.09ZM82.5713 28L87.1013 17.98L87.4313 18.46H80.9363L81.4913 17.935V20.425H80.4263V17.5H88.1363V18.265L83.7413 28H82.5713ZM96.7551 17.41C97.6851 17.41 98.4701 17.62 99.1101 18.04C99.7501 18.45 100.235 19.045 100.565 19.825C100.895 20.605 101.06 21.55 101.06 22.66C101.06 23.84 100.855 24.835 100.445 25.645C100.045 26.455 99.4851 27.065 98.7651 27.475C98.0451 27.885 97.2101 28.09 96.2601 28.09C95.7901 28.09 95.3401 28.045 94.9101 27.955C94.4901 27.865 94.1101 27.72 93.7701 27.52L94.2051 26.65C94.4751 26.83 94.7851 26.96 95.1351 27.04C95.4951 27.11 95.8651 27.145 96.2451 27.145C97.3751 27.145 98.2751 26.785 98.9451 26.065C99.6251 25.345 99.9651 24.27 99.9651 22.84C99.9651 22.61 99.9501 22.335 99.9201 22.015C99.9001 21.695 99.8451 21.375 99.7551 21.055L100.13 21.34C100.03 21.86 99.8151 22.305 99.4851 22.675C99.1651 23.035 98.7651 23.31 98.2851 23.5C97.8151 23.69 97.2901 23.785 96.7101 23.785C96.0201 23.785 95.4051 23.655 94.8651 23.395C94.3351 23.135 93.9201 22.77 93.6201 22.3C93.3201 21.83 93.1701 21.275 93.1701 20.635C93.1701 19.975 93.3251 19.405 93.6351 18.925C93.9451 18.445 94.3701 18.075 94.9101 17.815C95.4601 17.545 96.0751 17.41 96.7551 17.41ZM96.8001 18.325C96.3001 18.325 95.8551 18.42 95.4651 18.61C95.0851 18.79 94.7851 19.05 94.5651 19.39C94.3451 19.73 94.2351 20.135 94.2351 20.605C94.2351 21.295 94.4701 21.845 94.9401 22.255C95.4201 22.665 96.0651 22.87 96.8751 22.87C97.4151 22.87 97.8851 22.77 98.2851 22.57C98.6951 22.37 99.0101 22.095 99.2301 21.745C99.4601 21.395 99.5751 21.005 99.5751 20.575C99.5751 20.185 99.4701 19.82 99.2601 19.48C99.0501 19.14 98.7401 18.865 98.3301 18.655C97.9201 18.435 97.4101 18.325 96.8001 18.325ZM105.941 28.09C105.191 28.09 104.476 27.97 103.796 27.73C103.116 27.48 102.576 27.15 102.176 26.74L102.701 25.885C103.031 26.235 103.481 26.525 104.051 26.755C104.631 26.985 105.256 27.1 105.926 27.1C106.816 27.1 107.491 26.905 107.951 26.515C108.421 26.115 108.656 25.595 108.656 24.955C108.656 24.505 108.546 24.12 108.326 23.8C108.116 23.47 107.756 23.215 107.246 23.035C106.736 22.855 106.036 22.765 105.146 22.765H102.911L103.451 17.5H109.196V18.46H103.886L104.441 17.935L103.976 22.345L103.421 21.805H105.386C106.446 21.805 107.296 21.935 107.936 22.195C108.576 22.455 109.036 22.82 109.316 23.29C109.606 23.75 109.751 24.29 109.751 24.91C109.751 25.5 109.611 26.04 109.331 26.53C109.051 27.01 108.631 27.39 108.071 27.67C107.511 27.95 106.801 28.09 105.941 28.09ZM119.353 28.09C118.423 28.09 117.638 27.885 116.998 27.475C116.358 27.055 115.873 26.455 115.543 25.675C115.213 24.885 115.048 23.94 115.048 22.84C115.048 21.65 115.248 20.655 115.648 19.855C116.058 19.045 116.623 18.435 117.343 18.025C118.063 17.615 118.898 17.41 119.848 17.41C120.318 17.41 120.768 17.455 121.198 17.545C121.628 17.635 122.008 17.78 122.338 17.98L121.903 18.85C121.633 18.67 121.323 18.545 120.973 18.475C120.623 18.395 120.253 18.355 119.863 18.355C118.733 18.355 117.828 18.715 117.148 19.435C116.478 20.155 116.143 21.23 116.143 22.66C116.143 22.88 116.153 23.155 116.173 23.485C116.203 23.805 116.263 24.125 116.353 24.445L115.978 24.16C116.088 23.64 116.303 23.2 116.623 22.84C116.943 22.47 117.343 22.19 117.823 22C118.303 21.81 118.828 21.715 119.398 21.715C120.098 21.715 120.713 21.845 121.243 22.105C121.773 22.365 122.188 22.73 122.488 23.2C122.788 23.67 122.938 24.225 122.938 24.865C122.938 25.515 122.783 26.085 122.473 26.575C122.163 27.055 121.733 27.43 121.183 27.7C120.643 27.96 120.033 28.09 119.353 28.09ZM119.308 27.175C119.808 27.175 120.248 27.085 120.628 26.905C121.018 26.715 121.323 26.45 121.543 26.11C121.763 25.76 121.873 25.355 121.873 24.895C121.873 24.205 121.633 23.655 121.153 23.245C120.683 22.835 120.043 22.63 119.233 22.63C118.693 22.63 118.223 22.73 117.823 22.93C117.423 23.13 117.108 23.405 116.878 23.755C116.648 24.095 116.533 24.485 116.533 24.925C116.533 25.305 116.638 25.67 116.848 26.02C117.058 26.36 117.368 26.64 117.778 26.86C118.198 27.07 118.708 27.175 119.308 27.175ZM125.916 28L130.446 17.98L130.776 18.46H124.281L124.836 17.935V20.425H123.771V17.5H131.481V18.265L127.086 28H125.916ZM131.743 25.24V24.46L137.308 17.5H138.508L132.988 24.46L132.403 24.28H140.848V25.24H131.743ZM137.668 28V25.24L137.698 24.28V21.85H138.748V28H137.668ZM145.976 28.09C145.136 28.09 144.411 27.97 143.801 27.73C143.201 27.49 142.736 27.145 142.406 26.695C142.086 26.235 141.926 25.695 141.926 25.075C141.926 24.475 142.081 23.965 142.391 23.545C142.711 23.115 143.171 22.785 143.771 22.555C144.381 22.325 145.116 22.21 145.976 22.21C146.826 22.21 147.556 22.325 148.166 22.555C148.776 22.785 149.241 23.115 149.561 23.545C149.891 23.965 150.056 24.475 150.056 25.075C150.056 25.695 149.891 26.235 149.561 26.695C149.231 27.145 148.761 27.49 148.151 27.73C147.541 27.97 146.816 28.09 145.976 28.09ZM145.976 27.175C146.906 27.175 147.631 26.985 148.151 26.605C148.681 26.225 148.946 25.71 148.946 25.06C148.946 24.41 148.681 23.9 148.151 23.53C147.631 23.15 146.906 22.96 145.976 22.96C145.046 22.96 144.321 23.15 143.801 23.53C143.281 23.9 143.021 24.41 143.021 25.06C143.021 25.71 143.281 26.225 143.801 26.605C144.321 26.985 145.046 27.175 145.976 27.175ZM145.976 22.825C145.196 22.825 144.531 22.72 143.981 22.51C143.441 22.3 143.026 22 142.736 21.61C142.446 21.21 142.301 20.735 142.301 20.185C142.301 19.605 142.451 19.11 142.751 18.7C143.061 18.28 143.491 17.96 144.041 17.74C144.591 17.52 145.236 17.41 145.976 17.41C146.716 17.41 147.361 17.52 147.911 17.74C148.471 17.96 148.906 18.28 149.216 18.7C149.526 19.11 149.681 19.605 149.681 20.185C149.681 20.735 149.536 21.21 149.246 21.61C148.956 22 148.531 22.3 147.971 22.51C147.421 22.72 146.756 22.825 145.976 22.825ZM145.976 22.105C146.796 22.105 147.436 21.935 147.896 21.595C148.356 21.255 148.586 20.8 148.586 20.23C148.586 19.63 148.346 19.165 147.866 18.835C147.396 18.495 146.766 18.325 145.976 18.325C145.186 18.325 144.556 18.495 144.086 18.835C143.616 19.165 143.381 19.625 143.381 20.215C143.381 20.795 143.606 21.255 144.056 21.595C144.516 21.935 145.156 22.105 145.976 22.105ZM154.821 17.41C155.751 17.41 156.536 17.62 157.176 18.04C157.816 18.45 158.301 19.045 158.631 19.825C158.961 20.605 159.126 21.55 159.126 22.66C159.126 23.84 158.921 24.835 158.511 25.645C158.111 26.455 157.551 27.065 156.831 27.475C156.111 27.885 155.276 28.09 154.326 28.09C153.856 28.09 153.406 28.045 152.976 27.955C152.556 27.865 152.176 27.72 151.836 27.52L152.271 26.65C152.541 26.83 152.851 26.96 153.201 27.04C153.561 27.11 153.931 27.145 154.311 27.145C155.441 27.145 156.341 26.785 157.011 26.065C157.691 25.345 158.031 24.27 158.031 22.84C158.031 22.61 158.016 22.335 157.986 22.015C157.966 21.695 157.911 21.375 157.821 21.055L158.196 21.34C158.096 21.86 157.881 22.305 157.551 22.675C157.231 23.035 156.831 23.31 156.351 23.5C155.881 23.69 155.356 23.785 154.776 23.785C154.086 23.785 153.471 23.655 152.931 23.395C152.401 23.135 151.986 22.77 151.686 22.3C151.386 21.83 151.236 21.275 151.236 20.635C151.236 19.975 151.391 19.405 151.701 18.925C152.011 18.445 152.436 18.075 152.976 17.815C153.526 17.545 154.141 17.41 154.821 17.41ZM154.866 18.325C154.366 18.325 153.921 18.42 153.531 18.61C153.151 18.79 152.851 19.05 152.631 19.39C152.411 19.73 152.301 20.135 152.301 20.605C152.301 21.295 152.536 21.845 153.006 22.255C153.486 22.665 154.131 22.87 154.941 22.87C155.481 22.87 155.951 22.77 156.351 22.57C156.761 22.37 157.076 22.095 157.296 21.745C157.526 21.395 157.641 21.005 157.641 20.575C157.641 20.185 157.536 19.82 157.326 19.48C157.116 19.14 156.806 18.865 156.396 18.655C155.986 18.435 155.476 18.325 154.866 18.325ZM163.962 17.41C164.892 17.41 165.677 17.62 166.317 18.04C166.957 18.45 167.442 19.045 167.772 19.825C168.102 20.605 168.267 21.55 168.267 22.66C168.267 23.84 168.062 24.835 167.652 25.645C167.252 26.455 166.692 27.065 165.972 27.475C165.252 27.885 164.417 28.09 163.467 28.09C162.997 28.09 162.547 28.045 162.117 27.955C161.697 27.865 161.317 27.72 160.977 27.52L161.412 26.65C161.682 26.83 161.992 26.96 162.342 27.04C162.702 27.11 163.072 27.145 163.452 27.145C164.582 27.145 165.482 26.785 166.152 26.065C166.832 25.345 167.172 24.27 167.172 22.84C167.172 22.61 167.157 22.335 167.127 22.015C167.107 21.695 167.052 21.375 166.962 21.055L167.337 21.34C167.237 21.86 167.022 22.305 166.692 22.675C166.372 23.035 165.972 23.31 165.492 23.5C165.022 23.69 164.497 23.785 163.917 23.785C163.227 23.785 162.612 23.655 162.072 23.395C161.542 23.135 161.127 22.77 160.827 22.3C160.527 21.83 160.377 21.275 160.377 20.635C160.377 19.975 160.532 19.405 160.842 18.925C161.152 18.445 161.577 18.075 162.117 17.815C162.667 17.545 163.282 17.41 163.962 17.41ZM164.007 18.325C163.507 18.325 163.062 18.42 162.672 18.61C162.292 18.79 161.992 19.05 161.772 19.39C161.552 19.73 161.442 20.135 161.442 20.605C161.442 21.295 161.677 21.845 162.147 22.255C162.627 22.665 163.272 22.87 164.082 22.87C164.622 22.87 165.092 22.77 165.492 22.57C165.902 22.37 166.217 22.095 166.437 21.745C166.667 21.395 166.782 21.005 166.782 20.575C166.782 20.185 166.677 19.82 166.467 19.48C166.257 19.14 165.947 18.865 165.537 18.655C165.127 18.435 164.617 18.325 164.007 18.325Z" fill="#7B7B7B"/>
<defs>
<clipPath id="clip0_10_172">
<rect width="40" height="41" fill="white"/>
</clipPath>
</defs>
</svg>
