<svg width="40" height="41" viewBox="0 0 40 41" fill="none" xmlns="http://www.w3.org/2000/svg">
<g clip-path="url(#clip0_10_164)">
<path d="M20 41C31.0457 41 40 31.8218 40 20.5C40 9.17816 31.0457 0 20 0C8.9543 0 0 9.17816 0 20.5C0 31.8218 8.9543 41 20 41Z" fill="#7B7B7B"/>
<path d="M25.7502 23.085C25.5783 22.889 25.369 22.7312 25.1352 22.6215C24.9015 22.5118 24.6482 22.4524 24.3912 22.447C24.1325 22.4535 23.8778 22.513 23.6419 22.6219C23.406 22.7307 23.1937 22.8868 23.0175 23.081L21.7492 24.381C21.6448 24.323 21.5404 24.27 21.4399 24.216C21.2956 24.142 21.159 24.072 21.0429 23.998C19.7841 23.1588 18.6676 22.1144 17.7375 20.906C17.3063 20.3699 16.9422 19.7807 16.6536 19.152C16.9824 18.844 17.2878 18.523 17.5853 18.213C17.6975 18.098 17.8097 17.978 17.9219 17.863C18.1045 17.7004 18.254 17.5025 18.3619 17.2807C18.4699 17.0588 18.5341 16.8173 18.551 16.57C18.5678 16.3227 18.5369 16.0744 18.4601 15.8394C18.3833 15.6043 18.2621 15.387 18.1034 15.2C18.0468 15.1341 17.9862 15.0719 17.9219 15.014L16.8253 13.89C16.7004 13.762 16.5726 13.63 16.4517 13.498C16.2107 13.243 15.958 12.979 15.6965 12.732C15.522 12.5456 15.3131 12.3967 15.082 12.2937C14.8509 12.1907 14.6022 12.1357 14.3502 12.132C13.836 12.1416 13.3458 12.357 12.9843 12.732L12.9765 12.744L11.6107 14.155C11.1045 14.6648 10.7951 15.3449 10.7395 16.07C10.6927 17.1145 10.8681 18.1569 11.2536 19.125C11.9721 21.0457 13.0117 22.8233 14.3258 24.378C16.0481 26.5026 18.194 28.2248 20.6195 29.429C21.7206 30.0119 22.9197 30.375 24.1531 30.499C24.238 30.499 24.3258 30.507 24.4068 30.507C24.8419 30.5177 25.2742 30.4321 25.6741 30.2559C26.074 30.0797 26.4321 29.8171 26.7239 29.486C26.7239 29.478 26.7365 29.474 26.7395 29.466C26.9608 29.2053 27.1953 28.9566 27.4419 28.721C27.6146 28.551 27.7921 28.375 27.9638 28.19C28.3396 27.8147 28.5571 27.3036 28.5697 26.766C28.5647 26.4999 28.5073 26.2376 28.401 25.9948C28.2948 25.752 28.1417 25.5337 27.9512 25.353L25.7502 23.085Z" fill="white"/>
<path d="M20.9951 15.642C22.045 15.8289 23.013 16.3438 23.7666 17.1162C24.5202 17.8886 25.0225 18.8808 25.2048 19.957C25.2394 20.0924 25.3222 20.2096 25.4369 20.2855C25.5515 20.3615 25.6898 20.3907 25.8244 20.3673C25.9591 20.344 26.0803 20.2698 26.1642 20.1595C26.2482 20.0491 26.2888 19.9105 26.278 19.771C26.059 18.4684 25.4518 17.2672 24.5399 16.3325C23.628 15.3978 22.4562 14.7755 21.1853 14.551C21.0438 14.5269 20.8986 14.5609 20.7814 14.6457C20.6641 14.7305 20.5842 14.8592 20.559 15.004C20.533 15.1472 20.5635 15.2951 20.6438 15.4153C20.7241 15.5354 20.8476 15.618 20.9873 15.645L20.9951 15.642Z" fill="white"/>
<path d="M29.7179 19.607C29.3564 17.4612 28.3559 15.4826 26.8537 13.9429C25.3515 12.4031 23.4212 11.3776 21.3277 11.007C21.1854 10.9831 21.0397 11.0182 20.9226 11.1044C20.8055 11.1907 20.7266 11.3211 20.7033 11.467C20.68 11.6129 20.7142 11.7622 20.7984 11.8823C20.8825 12.0023 21.0098 12.0831 21.1521 12.107C23.022 12.4381 24.7462 13.3543 26.088 14.7296C27.4299 16.105 28.3237 17.8723 28.6467 19.789C28.6676 19.9186 28.7329 20.0364 28.8309 20.121C28.9289 20.2057 29.0532 20.2518 29.1814 20.251C29.2121 20.251 29.2428 20.248 29.2731 20.242C29.4125 20.2208 29.538 20.1436 29.622 20.0275C29.706 19.9115 29.7415 19.7659 29.7209 19.623L29.7179 19.607Z" fill="white"/>
</g>
<defs>
<clipPath id="clip0_10_164">
<rect width="40" height="41" fill="white"/>
</clipPath>
</defs>
</svg>
